<?xml version="1.0" standalone="no"?>
<!DOCTYPE svg PUBLIC "-//W3C//DTD SVG 20010904//EN"
 "http://www.w3.org/TR/2001/REC-SVG-20010904/DTD/svg10.dtd">
<svg version="1.0" xmlns="http://www.w3.org/2000/svg"
 width="225.000000pt" height="225.000000pt" viewBox="0 0 225.000000 225.000000"
 preserveAspectRatio="xMidYMid meet">
<metadata>
Created by potrace 1.14, written by Peter Selinger 2001-2017
</metadata>
<g transform="translate(0.000000,225.000000) scale(0.100000,-0.100000)"
fill="#000000" stroke="none">
<path d="M0 1125 l0 -1125 290 0 c187 0 290 4 290 10 0 6 0 13 -1 16 0 4 5 11
13 15 11 7 10 11 -2 20 -12 8 -10 9 7 4 17 -5 23 -2 23 11 0 13 3 14 14 5 12
-10 17 -8 25 8 9 16 8 20 -7 24 -9 2 11 3 45 2 35 -1 68 2 75 7 10 6 9 8 -2 8
-9 0 -32 8 -52 18 -25 13 -35 15 -31 6 2 -7 12 -15 21 -17 13 -3 11 -5 -4 -6
-15 -1 -25 8 -34 30 -12 28 -16 30 -48 24 -49 -9 -89 -27 -74 -32 17 -6 15
-43 -2 -43 -8 0 -17 -6 -19 -12 -3 -8 -6 -9 -6 -2 -1 7 -14 10 -33 8 -21 -2
-28 -1 -20 5 21 13 -43 22 -73 11 -30 -12 -35 8 -7 32 22 20 89 48 96 40 3 -3
6 7 6 21 0 24 2 26 26 17 33 -13 47 -13 39 0 -3 6 -1 10 4 10 6 0 11 -5 11
-10 0 -6 11 -3 24 7 19 14 21 20 10 26 -8 4 -18 6 -23 3 -14 -9 -41 4 -41 20
0 8 -4 14 -10 14 -5 0 -10 -4 -10 -8 0 -4 -16 -23 -35 -42 -19 -19 -35 -41
-35 -47 0 -30 -60 1 -60 31 0 9 -6 16 -13 16 -22 0 -57 -31 -57 -51 0 -10 -5
-19 -11 -19 -6 0 -9 6 -6 14 7 17 -14 27 -42 19 -15 -4 -21 -1 -21 10 0 13 6
14 32 6 41 -11 48 -11 48 0 0 5 -10 12 -22 14 l-23 4 23 2 c18 1 22 5 17 20
-4 14 0 23 14 30 27 15 34 14 27 -5 -4 -10 -2 -14 6 -11 7 2 12 10 10 16 -1 6
5 11 14 11 8 0 12 5 9 10 -3 6 1 10 10 10 9 0 14 -4 11 -9 -4 -5 0 -12 6 -14
8 -4 4 -8 -9 -12 -13 -4 -20 -11 -17 -16 3 -5 19 0 35 12 24 17 33 19 45 9 8
-7 17 -10 21 -6 11 11 -6 19 -37 19 -16 0 -30 4 -30 9 0 4 11 8 24 8 13 0 26
3 29 8 2 4 2 1 0 -6 -1 -7 2 -10 7 -7 6 3 25 1 43 -6 26 -9 38 -9 53 0 16 10
15 10 -11 5 -24 -4 -27 -3 -15 6 12 9 10 10 -13 5 -25 -5 -27 -4 -18 14 8 14
57 41 76 41 2 0 5 -9 8 -20 3 -11 1 -20 -5 -20 -5 0 -6 -5 -3 -11 9 -14 16 -6
19 25 2 14 -1 26 -6 26 -5 0 -7 4 -4 9 3 5 -5 8 -19 7 -14 0 -25 -5 -25 -9 0
-5 -5 -5 -11 -1 -8 4 -3 12 12 20 20 11 21 13 6 14 -13 0 -18 7 -17 23 5 62
-1 83 -40 127 -32 35 -40 53 -40 83 0 44 -8 46 -40 12 -27 -28 -40 -32 -40
-10 0 8 -18 22 -40 31 -35 14 -54 34 -32 34 4 0 26 18 49 41 35 34 40 43 31
58 -23 37 17 75 53 53 27 -17 37 -15 67 13 20 18 38 25 69 25 23 0 43 -5 45
-12 6 -17 28 0 28 23 0 10 5 19 10 19 6 0 10 7 10 16 0 9 -5 12 -12 8 -7 -5
-8 -3 -3 6 5 8 3 11 -6 8 -9 -3 -13 -15 -11 -31 2 -15 -1 -27 -7 -27 -15 0
-14 57 1 63 10 3 10 7 0 20 -12 14 -11 20 2 39 9 12 16 18 16 12 0 -5 -5 -15
-11 -21 -6 -6 -8 -16 -5 -22 10 -16 29 -14 23 2 -3 8 -1 20 4 28 6 9 8 3 5
-20 -2 -19 0 -42 4 -50 13 -26 29 -64 39 -93 10 -26 9 -26 -24 -22 -27 3 -38
-1 -53 -21 -11 -13 -23 -21 -27 -17 -4 4 -4 -3 -1 -15 5 -15 3 -23 -4 -23 -18
0 12 -26 40 -35 13 -4 30 -14 38 -22 19 -18 29 -8 12 12 -14 17 -8 31 9 20 17
-10 13 -43 -6 -54 -10 -5 -15 -13 -11 -17 4 -4 14 -2 21 4 16 14 75 -4 94 -28
17 -20 16 1 -1 22 -7 10 -24 19 -37 19 -17 1 -19 3 -6 6 9 2 17 7 17 10 0 4
-8 16 -17 27 -14 16 -14 18 -2 8 9 -6 20 -8 24 -4 5 4 5 1 1 -5 -4 -7 -2 -13
3 -13 6 0 11 -6 11 -13 0 -8 9 -22 20 -32 14 -12 18 -26 14 -44 -3 -14 -7 -36
-10 -48 -2 -12 -13 -25 -25 -28 -11 -4 -29 -21 -40 -38 -21 -35 -25 -52 -9
-42 5 3 10 -1 10 -10 0 -11 -5 -15 -15 -11 -8 3 -15 1 -15 -3 0 -18 12 -41 22
-41 6 0 33 -20 60 -45 66 -59 86 -63 137 -29 23 15 39 29 36 32 -2 3 37 24 88
47 50 23 126 62 167 87 66 40 77 44 91 32 20 -18 27 -17 62 1 l28 15 -25 -46
c-31 -55 -31 -55 -9 -47 11 4 14 3 9 -5 -5 -8 -2 -10 8 -6 12 5 16 0 16 -20 0
-28 -41 -63 -60 -51 -16 10 7 35 31 35 11 0 19 4 19 9 0 16 -51 22 -86 11 -23
-8 -39 -8 -47 -2 -8 6 -26 5 -52 -3 -22 -7 -34 -13 -27 -14 6 -1 12 -10 12
-21 0 -22 -17 -26 -40 -9 -11 8 -12 12 -3 16 20 8 15 23 -7 23 -14 0 -20 -7
-20 -23 0 -26 -48 -67 -77 -67 -10 0 -23 -4 -29 -8 -15 -10 -17 -82 -1 -82 7
0 45 23 85 50 41 28 82 50 93 50 10 0 19 4 19 9 0 12 38 2 74 -20 23 -14 34
-16 50 -7 12 6 46 12 76 13 30 1 47 0 38 -2 -10 -2 -38 -15 -64 -28 -26 -13
-51 -22 -54 -20 -8 5 -4 -44 4 -53 13 -12 57 -10 63 4 7 19 53 18 53 -1 0 -8
-4 -15 -10 -15 -5 0 -10 5 -10 10 0 6 -5 10 -11 10 -6 0 -8 -9 -4 -20 4 -13 2
-20 -7 -20 -7 0 0 -11 16 -23 16 -13 26 -29 22 -35 -9 -14 -36 -4 -36 14 0 7
-11 16 -25 20 -14 3 -22 10 -19 15 3 5 -2 9 -10 9 -9 0 -16 5 -16 10 0 6 -11
15 -25 22 -13 6 -22 15 -19 19 3 5 1 9 -4 9 -6 0 -12 -7 -16 -15 -3 -9 0 -15
9 -15 17 0 19 -9 6 -29 -9 -13 -43 -12 -86 3 -20 8 -20 7 -1 -8 24 -19 8 -21
-16 -2 -10 7 -14 17 -11 22 4 5 2 4 -6 -3 -7 -6 -20 -9 -27 -6 -8 3 -20 1 -27
-5 -6 -5 -28 -12 -48 -16 -21 -4 -42 -13 -48 -20 -7 -8 -22 -11 -38 -8 -18 3
-24 1 -19 -7 4 -7 -3 -15 -19 -21 -16 -6 -23 -14 -19 -22 5 -8 -3 -9 -29 -5
-21 3 -37 2 -37 -4 0 -5 6 -9 13 -9 8 0 7 -4 -3 -10 -8 -5 -19 -10 -25 -10 -5
0 -4 4 4 9 11 7 11 10 0 17 -7 4 -14 3 -16 -3 -2 -6 -13 -9 -23 -6 -12 3 -20
0 -20 -6 0 -7 -4 -10 -8 -7 -4 2 -21 -1 -37 -8 -17 -8 -49 -19 -72 -26 -23 -7
-40 -16 -38 -20 4 -7 -19 -22 -37 -24 -3 -1 -10 -4 -14 -9 -4 -4 362 -7 814
-7 l822 0 -2 337 -3 338 -30 6 -30 6 29 4 c16 2 32 10 34 18 4 11 -7 13 -52 9
-55 -5 -84 6 -51 18 10 4 15 14 12 25 -3 11 0 22 5 26 7 3 8 1 4 -5 -4 -7 -2
-12 3 -12 6 0 11 -6 11 -14 0 -12 6 -12 35 -3 l35 10 0 744 0 743 -1125 0
-1125 0 0 -1125z m981 938 c-12 -20 -14 -14 -5 12 4 9 9 14 11 11 3 -2 0 -13
-6 -23z m65 15 c-8 14 -5 15 18 6 27 -10 18 -19 -24 -22 -24 -1 -40 2 -40 8 0
6 5 8 10 5 6 -3 10 -1 10 6 0 8 5 7 17 -2 11 -10 14 -10 9 -1z m71 -3 c0 -8
-4 -15 -9 -15 -10 0 -11 14 -1 23 9 10 10 9 10 -8z m107 0 c-6 -14 -51 -17
-60 -4 -4 8 1 9 16 4 13 -4 20 -3 17 2 -3 5 3 9 13 9 10 0 16 -5 14 -11z m36
0 c0 -8 -8 -15 -17 -14 -11 0 -13 3 -5 6 6 2 10 9 6 14 -3 5 0 9 5 9 6 0 11
-7 11 -15z m85 -15 c8 0 15 7 15 15 0 8 6 15 14 15 10 0 16 -14 18 -42 2 -32
7 -42 18 -41 8 2 28 -8 44 -22 34 -29 40 -31 32 -10 -3 9 3 19 14 25 14 7 20
7 20 0 0 -5 -4 -10 -10 -10 -5 0 -10 -5 -10 -11 0 -5 4 -8 9 -4 6 3 8 -3 6
-15 -5 -25 11 -35 54 -31 20 2 38 -3 43 -11 7 -10 11 -10 15 0 2 6 9 12 15 12
7 0 6 -5 -1 -14 -9 -11 -9 -15 1 -19 10 -4 10 -7 -1 -15 -9 -7 -10 -11 -2 -17
9 -5 9 -11 -1 -23 -11 -14 -10 -15 5 -9 11 4 30 10 43 13 13 3 24 12 24 20 0
8 5 14 10 14 17 0 11 -37 -7 -44 -15 -6 -15 -9 -3 -16 9 -5 -2 -7 -27 -3 -34
4 -43 2 -52 -15 -15 -28 15 -39 42 -15 19 17 20 17 14 1 -5 -14 2 -20 33 -29
28 -9 40 -18 40 -31 0 -10 -4 -18 -8 -18 -4 0 -12 -15 -17 -32 -7 -23 -17 -34
-32 -36 -13 -2 -23 -9 -23 -16 0 -7 -14 -27 -32 -45 -26 -27 -29 -34 -17 -42
10 -8 8 -9 -8 -4 -15 4 -23 2 -23 -6 0 -9 -3 -10 -10 -3 -8 8 -8 19 0 38 6 16
6 25 0 21 -5 -3 -12 11 -15 32 -4 21 -12 65 -20 98 -27 120 -28 127 -14 136
11 7 10 9 -4 9 -10 0 -16 4 -12 9 3 5 1 12 -5 16 -5 3 -10 11 -10 16 0 6 5 7
11 3 7 -4 10 -1 7 7 -3 8 -11 13 -17 12 -6 -2 -11 3 -11 10 0 7 -16 21 -35 30
-19 9 -35 22 -35 27 0 6 -4 9 -9 5 -14 -8 -61 16 -61 31 0 7 -5 16 -12 20 -8
5 -9 2 -5 -10 6 -14 3 -17 -9 -12 -8 3 -18 6 -20 6 -2 0 -4 5 -4 11 0 5 5 7
10 4 6 -3 10 -1 10 4 0 6 -7 11 -15 11 -16 0 -20 12 -8 24 4 3 11 0 15 -9 5
-8 16 -15 23 -15z m5 20 c0 -5 -2 -10 -4 -10 -3 0 -8 5 -11 10 -3 6 -1 10 4
10 6 0 11 -4 11 -10z m-530 -15 c-7 -9 -15 -13 -17 -11 -7 7 7 26 19 26 6 0 6
-6 -2 -15z m140 5 c0 -5 -5 -10 -11 -10 -5 0 -7 5 -4 10 3 6 8 10 11 10 2 0 4
-4 4 -10z m330 6 c0 -3 -4 -8 -10 -11 -5 -3 -10 -1 -10 4 0 6 5 11 10 11 6 0
10 -2 10 -4z m-390 -16 c8 -5 10 -10 4 -10 -6 0 -23 -11 -38 -25 -14 -13 -26
-21 -26 -17 0 12 15 29 30 35 9 3 6 6 -10 6 -20 1 -22 3 -10 11 8 5 20 10 25
10 6 0 17 -5 25 -10z m235 -17 c-11 -3 -24 -9 -29 -14 -13 -12 -29 -11 -21 1
11 18 -10 10 -28 -10 -34 -40 -13 -134 33 -154 l28 -11 -24 -12 c-20 -9 -29
-7 -63 18 -22 15 -61 32 -88 36 -45 8 -48 10 -54 46 -7 45 2 54 61 63 25 4 53
15 63 25 14 15 31 19 80 18 34 -1 53 -3 42 -6z m-307 -34 c-1 -25 -3 -28 -10
-14 -5 9 -7 23 -4 31 9 23 15 16 14 -17z m496 -5 c9 -8 20 -23 26 -33 12 -23
9 -62 -4 -58 -13 4 -36 -38 -36 -63 0 -12 13 -22 42 -32 27 -8 44 -20 46 -32
7 -33 -13 -39 -56 -17 -23 12 -45 21 -49 21 -4 -1 12 -12 37 -25 38 -19 49
-32 69 -81 l24 -57 -36 -105 -37 -105 27 -35 c50 -62 50 -59 18 -94 -24 -26
-25 -28 -4 -10 14 12 28 19 32 16 11 -12 -14 -48 -81 -117 -55 -55 -68 -64
-73 -50 -5 13 8 33 45 72 l51 54 -70 -59 c-114 -97 -138 -126 -175 -207 -29
-65 -38 -76 -55 -72 -11 3 -36 5 -55 5 -23 0 -30 3 -22 9 14 9 14 8 -20 74
-12 23 -14 35 -24 135 -4 41 -3 67 5 75 8 8 7 15 -2 26 -10 12 -9 13 2 6 10
-6 12 -4 6 4 -4 7 -16 11 -26 8 -11 -3 -19 -1 -19 4 0 5 -11 2 -24 -6 -23 -15
-74 -15 -128 1 -16 5 -18 -2 -18 -54 0 -52 6 -72 55 -166 57 -110 64 -136 42
-155 -20 -16 -62 76 -54 117 5 23 -4 44 -49 113 -74 112 -72 107 -84 182 -9
57 -8 72 9 115 17 44 19 66 14 200 l-6 151 27 12 c22 10 26 17 21 38 -4 22 3
32 47 68 l53 43 3 -32 c4 -34 -7 -45 -50 -55 -16 -3 -28 -9 -28 -13 0 -18 16
-18 47 1 l33 21 0 -27 c0 -44 31 -169 47 -186 11 -13 33 -16 116 -15 l102 1
63 100 c34 55 66 99 70 98 4 -1 16 -4 27 -8 16 -4 15 -3 -2 6 -13 7 -23 16
-23 20 0 10 68 138 83 157 8 10 7 16 -4 23 -8 5 -9 9 -2 9 6 0 19 -7 27 -16z
m-524 -9 c14 -17 8 -31 -9 -20 -6 3 -9 11 -6 16 4 5 2 9 -3 9 -17 0 -22 -13
-9 -29 10 -14 10 -14 -3 -4 -18 13 -46 1 -36 -15 3 -6 3 -13 -2 -16 -4 -2 -9
6 -10 19 -1 16 5 26 18 30 11 4 18 11 15 16 -10 15 32 10 45 -6z m-245 -80
c11 -2 23 -4 28 -4 4 -1 7 -7 7 -15 0 -7 13 -19 29 -26 19 -7 28 -17 24 -26
-3 -8 0 -14 6 -14 6 0 11 -10 11 -22 0 -17 -3 -19 -12 -10 -15 15 -48 16 -48
2 0 -5 -9 -10 -20 -10 -21 0 -28 19 -7 21 10 0 10 2 0 6 -7 2 -13 11 -13 19 0
8 -11 14 -27 15 -16 0 -22 3 -15 6 17 7 15 23 -3 23 -8 0 -15 -4 -15 -10 0 -5
-4 -10 -9 -10 -5 0 -9 16 -8 36 1 33 3 35 27 29 14 -3 34 -8 45 -10z m85 0 c0
-8 -7 -15 -16 -15 -14 0 -14 3 -4 15 7 8 14 15 16 15 2 0 4 -7 4 -15z m30 5
c0 -5 -5 -10 -11 -10 -5 0 -7 5 -4 10 3 6 8 10 11 10 2 0 4 -4 4 -10z m505
-72 c29 -13 27 -23 -8 -75 -24 -36 -42 -42 -51 -17 -9 24 -7 50 6 79 13 28 17
30 53 13z m485 -48 c0 -5 -2 -10 -4 -10 -3 0 -8 5 -11 10 -3 6 -1 10 4 10 6 0
11 -4 11 -10z m-130 -36 c0 -8 -4 -14 -9 -14 -6 0 -9 9 -8 19 1 22 17 18 17
-5z m-892 -4 c-9 -13 -14 -16 -17 -8 -2 7 -9 16 -15 20 -6 4 1 8 17 8 25 0 26
-2 15 -20z m-118 -30 c4 0 10 -9 13 -20 7 -27 -4 -25 -25 5 -11 15 -15 30 -11
42 7 16 8 16 11 -4 2 -13 7 -23 12 -23z m20 30 c0 -5 -4 -10 -10 -10 -5 0 -10
5 -10 10 0 6 5 10 10 10 6 0 10 -4 10 -10z m60 -21 c0 -5 -7 -6 -15 -3 -8 4
-15 13 -15 21 0 13 3 13 15 3 8 -7 15 -16 15 -21z m50 -18 c-6 -12 -8 -27 -4
-34 6 -8 3 -8 -8 1 -17 14 -14 42 4 42 6 0 7 8 3 18 -5 13 -3 14 5 6 9 -9 9
-17 0 -33z m885 9 c-3 -5 -11 -10 -16 -10 -6 0 -7 5 -4 10 3 6 11 10 16 10 6
0 7 -4 4 -10z m-1025 -30 c0 -5 -5 -10 -11 -10 -5 0 -7 5 -4 10 3 6 8 10 11
10 2 0 4 -4 4 -10z m-70 -30 c0 -5 -7 -10 -15 -10 -9 0 -16 -10 -16 -27 -2
-25 -2 -25 -6 -5 -3 13 1 30 7 38 14 16 30 19 30 4z m22 -50 c6 0 8 -3 5 -6
-10 -11 -38 17 -30 30 5 7 9 5 11 -6 2 -10 8 -18 14 -18z m1096 -72 c-6 -18
-28 -21 -28 -4 0 9 7 16 16 16 9 0 14 -5 12 -12z m-943 -29 c4 -6 13 -8 20 -5
26 9 25 -56 -1 -107 -24 -49 -32 -75 -14 -47 7 11 9 2 9 -30 -1 -43 -2 -44
-12 -17 -13 31 -24 34 -43 10 -12 -16 -13 -15 -14 15 0 25 -4 32 -20 32 -13 0
-20 7 -20 18 0 26 -38 68 -57 64 -14 -3 -14 -1 1 13 19 19 21 32 4 37 -6 2 -8
10 -4 16 9 15 142 16 151 1z m-172 -29 c-6 -22 -7 -22 -13 -4 -4 10 -2 22 4
26 15 10 16 6 9 -22z m1157 -24 c0 -3 -4 -8 -10 -11 -5 -3 -10 -1 -10 4 0 6 5
11 10 11 6 0 10 -2 10 -4z m300 -25 c0 -5 -7 -11 -15 -15 -9 -3 -15 0 -15 9 0
8 7 15 15 15 8 0 15 -4 15 -9z m-1435 -11 c-3 -5 -13 -10 -21 -10 -8 0 -14 5
-14 10 0 6 9 10 21 10 11 0 17 -4 14 -10z m1063 -12 c1 -7 4 -26 8 -42 6 -25
4 -28 -11 -23 -13 6 -16 3 -11 -10 4 -10 4 -14 -1 -10 -20 20 -10 93 13 97 0
0 1 -6 2 -12z m-1063 -24 c20 -15 20 -16 -4 -12 -14 2 -26 9 -29 16 -5 16 9
15 33 -4z m1124 -45 c-5 -10 -12 -19 -15 -19 -2 0 0 9 6 20 7 14 7 20 0 20 -5
0 -10 5 -10 11 0 8 4 8 15 -1 11 -9 12 -17 4 -31z m311 31 c0 -5 -10 -10 -22
-10 -19 0 -20 2 -8 10 19 13 30 13 30 0z m-10 -74 c4 -11 6 -24 3 -28 -2 -4 3
-5 11 -2 9 3 16 1 16 -5 0 -6 -6 -11 -14 -11 -8 0 -18 -5 -22 -12 -5 -7 -1 -9
13 -6 30 8 22 -31 -13 -59 -28 -22 -28 -23 -6 -23 13 0 22 6 22 15 0 8 4 15 9
15 12 0 11 -49 -2 -57 -6 -3 -7 -1 -3 5 4 7 3 12 -3 12 -5 0 -12 -6 -15 -12
-5 -10 -7 -10 -12 0 -3 6 -10 12 -15 12 -6 0 -7 -4 -4 -10 3 -5 -3 -10 -14
-10 -14 0 -19 -5 -15 -15 5 -11 -1 -15 -19 -15 -14 0 -27 -6 -29 -12 -3 -7 -7
-2 -10 10 -4 12 -2 20 3 16 5 -3 9 1 10 8 0 10 2 10 6 1 11 -29 23 -10 23 37
0 43 -3 50 -20 50 -17 0 -20 -7 -20 -41 0 -35 -2 -40 -17 -34 -10 5 -26 8 -35
9 -21 0 -24 12 -5 19 6 2 20 -2 30 -11 16 -14 17 -12 17 22 l0 38 -39 -31
c-21 -17 -43 -31 -48 -31 -5 0 -23 -16 -42 -35 -18 -19 -37 -33 -42 -29 -5 3
-9 -2 -9 -11 0 -8 -7 -18 -16 -22 -13 -5 -13 -7 -2 -14 9 -6 9 -9 1 -9 -17 0
-25 16 -38 82 -12 57 -12 59 11 77 13 10 24 24 24 30 0 6 4 11 9 11 5 0 12 10
14 23 4 19 4 18 6 -5 0 -17 7 -28 15 -28 22 0 29 18 9 23 -14 4 -13 5 4 6 12
0 23 -4 25 -10 2 -6 15 -9 28 -7 l25 5 -24 10 c-16 6 -20 12 -13 17 7 4 10 12
7 17 -10 16 7 10 20 -7 10 -15 13 -15 27 0 9 9 23 16 31 16 8 0 22 9 33 21 12
13 27 19 41 16 13 -2 23 -1 23 3 0 17 42 -4 50 -24z m-1280 -8 c0 -4 -7 -8
-15 -8 -8 0 -15 4 -15 8 0 5 7 9 15 9 8 0 15 -4 15 -9z m1007 -14 c-3 -3 -12
-4 -19 -1 -8 3 -5 6 6 6 11 1 17 -2 13 -5z m-958 -103 c2 -26 -13 -1 -16 27
-2 23 -1 24 7 7 5 -11 9 -26 9 -34z m15 -47 c-2 -13 0 -26 6 -29 5 -3 10 -14
10 -23 -1 -14 -2 -14 -12 3 -6 11 -14 22 -18 25 -9 7 -19 37 -14 42 13 14 32
2 28 -18z m1003 -31 c-3 -10 -5 -4 -5 12 0 17 2 24 5 18 2 -7 2 -21 0 -30z
m-427 -62 c-21 -42 -28 -68 -24 -88 7 -34 -30 -88 -53 -79 -8 3 -11 2 -8 -3
11 -19 -16 -21 -35 -3 l-21 19 23 29 c13 16 31 40 40 54 22 35 97 130 103 130
3 0 -8 -27 -25 -59z m374 8 c-3 -6 0 -15 7 -20 10 -6 11 -9 2 -9 -7 0 -13 -5
-13 -11 0 -6 7 -8 16 -5 12 5 15 2 10 -9 -3 -10 -2 -14 5 -9 6 3 9 15 6 25 -7
25 21 48 34 28 6 -10 11 -11 17 -3 4 7 15 8 27 3 19 -7 19 -8 -3 -8 -26 -1
-37 -21 -28 -55 5 -19 11 -22 31 -18 14 2 31 -1 39 -7 19 -16 26 -69 10 -82
-11 -9 -102 -16 -107 -8 -14 22 -47 103 -47 113 0 7 -7 19 -15 26 -13 11 -13
15 -3 21 7 5 8 9 2 9 -6 0 -11 7 -11 15 0 8 7 15 14 15 8 0 11 -5 7 -11z m156
1 c0 -5 -2 -10 -4 -10 -3 0 -8 5 -11 10 -3 6 -1 10 4 10 6 0 11 -4 11 -10z
m-193 -22 c-3 -8 -6 -5 -6 6 -1 11 2 17 5 13 3 -3 4 -12 1 -19z m323 13 c0
-12 -20 -25 -27 -18 -7 7 6 27 18 27 5 0 9 -4 9 -9z m-586 -36 c-4 -8 -10 -15
-16 -15 -5 0 -7 -4 -4 -8 6 -10 -51 -82 -65 -82 -18 0 -8 19 37 69 48 54 57
60 48 36z m537 -23 c-6 -11 -8 -22 -5 -24 3 -3 -2 -8 -10 -11 -9 -4 -20 1 -25
12 -11 19 -5 31 13 31 6 0 5 -4 -3 -9 -9 -6 -10 -11 -2 -15 6 -4 15 4 21 20 6
15 13 24 16 21 3 -3 1 -14 -5 -25z m279 13 c0 -9 -9 -15 -22 -14 -20 1 -20 2
-4 6 15 4 16 7 5 14 -11 7 -11 9 4 9 9 0 17 -7 17 -15z m-221 -32 c0 -21 -3
-32 -6 -25 -2 6 -11 12 -19 12 -14 0 -20 31 -7 43 18 19 33 5 32 -30z m151 -3
c-8 -5 -19 -10 -25 -10 -5 0 -3 5 5 10 8 5 20 10 25 10 6 0 3 -5 -5 -10z
m-592 -22 c-2 -15 13 -36 51 -73 l55 -52 -21 -26 c-28 -35 -128 -145 -120
-130 4 6 2 15 -4 18 -5 4 -8 14 -4 24 5 14 4 14 -12 -1 -13 -14 -14 -21 -5
-30 8 -8 9 -15 0 -25 -8 -11 -7 -12 7 -7 15 6 16 4 5 -16 -12 -22 -12 -22 -29
16 -10 22 -26 45 -35 53 -9 8 -26 26 -36 41 l-20 28 46 37 c44 37 45 37 67 19
22 -19 22 -19 5 1 -16 20 -16 22 7 50 13 17 24 42 25 56 0 23 7 39 17 39 3 0
3 -10 1 -22z m382 -18 c0 -5 -4 -10 -10 -10 -5 0 -10 5 -10 10 0 6 5 10 10 10
6 0 10 -4 10 -10z m200 1 c0 -5 -7 -12 -16 -15 -13 -5 -14 -9 -4 -21 8 -9 8
-15 2 -15 -6 0 -12 6 -15 13 -2 6 -8 9 -12 5 -5 -5 0 -17 10 -28 10 -11 15
-20 12 -20 -3 0 -15 9 -26 21 -11 12 -21 16 -25 10 -4 -5 -2 -12 4 -16 5 -3
10 -11 10 -18 0 -6 -6 -3 -12 6 -12 16 -18 13 -67 -32 -36 -33 -59 -47 -72
-44 -13 4 -19 0 -19 -12 0 -14 -3 -15 -13 -6 -8 6 -28 9 -45 7 -38 -4 -46 2
-29 22 7 9 7 13 1 9 -6 -4 -20 3 -30 15 -18 20 -18 21 -1 15 11 -4 31 -10 45
-13 22 -4 24 -3 10 6 -9 6 -15 17 -12 24 4 11 14 10 49 -7 24 -12 41 -25 39
-29 -8 -12 30 3 41 17 6 6 28 23 51 37 22 15 47 33 55 40 29 30 69 46 69 29z
m-145 -11 c3 -5 1 -10 -4 -10 -6 0 -11 5 -11 10 0 6 2 10 4 10 3 0 8 -4 11
-10z m-1104 -34 l11 -24 22 25 22 25 114 -9 115 -8 -2 -37 c-2 -40 9 -50 25
-22 7 12 11 13 16 5 5 -8 20 -2 47 19 43 35 51 34 69 -11 12 -29 12 -33 -11
-50 -13 -10 -39 -26 -56 -36 -32 -17 -33 -17 -61 10 -36 35 -48 34 -56 -5 -3
-17 -9 -28 -12 -25 -4 3 -2 19 4 36 12 35 3 41 -64 41 -24 0 -53 6 -64 12 -16
11 -25 10 -47 -4 -16 -10 -27 -22 -25 -28 1 -7 -2 -9 -8 -5 -5 3 -10 1 -10 -4
0 -24 -31 -9 -53 27 -20 30 -22 42 -15 65 12 33 25 35 39 3z m1052 -24 c-15
-10 -19 -10 -25 5 -11 29 -9 32 17 20 23 -11 24 -13 8 -25z m67 34 c0 -3 -4
-8 -10 -11 -5 -3 -10 -1 -10 4 0 6 5 11 10 11 6 0 10 -2 10 -4z m-180 -46 c0
-5 -7 -10 -16 -10 -8 0 -12 5 -9 10 3 6 10 10 16 10 5 0 9 -4 9 -10z m296 -35
c-21 -19 -44 -32 -49 -28 -8 5 -7 8 1 11 7 2 9 9 6 14 -4 6 -2 8 3 5 6 -4 18
2 28 13 10 11 25 20 34 20 10 -1 2 -13 -23 -35z m-1299 -27 c-16 -10 -29 5
-21 26 6 15 7 15 19 -1 10 -13 10 -20 2 -25z m1213 27 c0 -2 -7 -5 -15 -9 -9
-3 -15 0 -15 9 0 9 6 12 15 9 8 -4 15 -7 15 -9z m276 -7 c4 -6 3 -8 -3 -5 -6
4 -13 -2 -16 -13 -3 -11 -11 -20 -19 -19 -10 0 -10 2 0 6 6 2 12 9 12 15 0 6
-7 8 -15 4 -8 -3 -15 -1 -15 4 0 5 10 11 23 13 12 2 23 5 24 6 1 0 5 -4 9 -11z
m-1561 -8 c-3 -5 -15 -10 -26 -10 -11 0 -17 5 -14 10 3 6 15 10 26 10 11 0 17
-4 14 -10z m1475 6 c0 -2 -16 -11 -36 -21 -25 -12 -33 -20 -24 -25 7 -4 9 -13
6 -19 -4 -6 -2 -11 3 -11 6 0 11 6 11 13 0 8 3 7 10 -3 11 -18 -15 -50 -42
-50 -20 0 -24 -15 -6 -26 7 -4 8 -3 4 4 -4 7 -2 12 3 12 20 0 12 -15 -26 -48
-21 -18 -31 -30 -23 -26 8 4 4 -4 -10 -17 -14 -13 -26 -21 -28 -16 -2 4 -15 7
-28 7 -18 0 -24 5 -24 21 0 32 -17 56 -45 63 -21 5 -25 12 -23 37 1 17 8 34
15 36 21 8 15 22 -7 18 -11 -2 -23 2 -26 8 -4 7 -4 9 1 5 4 -4 14 -3 21 3 8 7
14 7 19 -1 5 -8 14 -6 31 5 13 8 24 12 24 7 0 -4 17 -7 38 -6 40 1 66 -12 55
-29 -3 -6 -1 -7 5 -3 6 4 9 13 5 21 -3 10 6 20 28 30 32 13 69 20 69 11z
m-467 -89 c16 -32 27 -60 25 -62 -2 -2 -34 15 -72 38 l-69 41 29 23 c16 13 36
22 44 21 8 -2 28 -29 43 -61z m-924 40 c8 -10 7 -14 -4 -14 -8 0 -15 6 -15 14
0 7 2 13 4 13 2 0 9 -6 15 -13z m1378 7 c-3 -3 -12 -4 -19 -1 -8 3 -5 6 6 6
11 1 17 -2 13 -5z m-369 -39 c-3 -3 -9 2 -12 12 -6 14 -5 15 5 6 7 -7 10 -15
7 -18z m95 -2 c9 -9 -22 -43 -40 -43 -7 0 -13 -4 -13 -9 0 -5 -17 -20 -37 -32
-21 -13 -40 -27 -42 -32 -1 -4 -12 -16 -23 -27 -21 -19 -10 -37 17 -26 11 4
15 -2 15 -23 0 -30 -16 -42 -47 -36 -10 2 -37 6 -60 8 -36 4 -43 2 -43 -13 0
-20 -19 -37 -37 -34 -7 1 -17 2 -22 3 -24 3 -20 36 6 58 15 13 39 34 53 46 32
28 175 115 218 133 17 8 32 19 32 24 0 11 13 13 23 3z m273 -28 c-8 -8 -17
-15 -20 -15 -3 0 -3 7 0 15 4 8 13 15 21 15 12 0 12 -2 -1 -15z m-950 -67
c-15 -34 -22 -65 -19 -78 4 -16 3 -21 -5 -16 -20 12 -14 55 15 107 35 64 40
57 9 -13z m-69 -2 c-32 -43 -77 -76 -77 -55 0 5 6 12 14 15 8 3 27 23 42 45
14 21 33 39 40 39 9 0 2 -16 -19 -44z m747 8 c30 -29 14 -61 -23 -49 -25 7
-35 34 -20 51 15 18 24 18 43 -2z m-852 -18 c7 4 8 3 4 -4 -10 -16 -18 -15
-42 4 -18 14 -18 15 4 4 12 -6 28 -8 34 -4z m1059 -10 c-9 -11 -9 -15 1 -19 7
-3 2 -6 -11 -6 -23 -1 -24 0 -6 19 20 23 34 28 16 6z m-1711 -36 c0 -5 -7 -10
-15 -10 -8 0 -15 5 -15 10 0 6 7 10 15 10 8 0 15 -4 15 -10z m581 -75 c17 -14
25 -25 18 -25 -24 0 -59 43 -58 69 2 23 2 24 6 4 2 -12 18 -34 34 -48z m524
19 c-22 -16 -41 -4 -31 21 5 13 10 14 28 4 21 -11 21 -12 3 -25z m546 -14 c10
0 19 -4 19 -10 0 -5 -6 -10 -13 -10 -16 0 -37 20 -36 35 0 5 3 4 6 -2 2 -7 13
-13 24 -13z m-1654 -6 c-3 -3 -12 -4 -19 -1 -8 3 -5 6 6 6 11 1 17 -2 13 -5z
m1483 2 c0 -2 -12 -11 -27 -20 l-28 -17 24 20 c23 21 31 25 31 17z m206 -40
c-7 -21 -15 -33 -18 -25 -4 13 21 74 28 67 2 -2 -3 -21 -10 -42z m-179 2 c-3
-8 -6 -5 -6 6 -1 11 2 17 5 13 3 -3 4 -12 1 -19z m110 16 c-3 -3 -12 -4 -19
-1 -8 3 -5 6 6 6 11 1 17 -2 13 -5z m-208 -45 c-19 -11 -24 -3 -8 14 8 9 16
11 18 5 2 -6 -3 -14 -10 -19z m241 16 c0 -8 -4 -15 -10 -15 -5 0 -7 7 -4 15 4
8 8 15 10 15 2 0 4 -7 4 -15z m-510 -5 c0 -5 -5 -10 -11 -10 -5 0 -7 5 -4 10
3 6 8 10 11 10 2 0 4 -4 4 -10z m340 -11 c0 -5 -4 -9 -8 -9 -5 0 -9 7 -9 15 0
8 4 12 9 9 4 -3 8 -9 8 -15z m235 1 c3 -5 1 -10 -4 -10 -6 0 -11 5 -11 10 0 6
2 10 4 10 3 0 8 -4 11 -10z m-1628 -6 c-3 -3 -12 -4 -19 -1 -8 3 -5 6 6 6 11
1 17 -2 13 -5z m1433 -29 c0 -14 -4 -25 -9 -25 -4 0 -6 11 -3 25 2 14 6 25 8
25 2 0 4 -11 4 -25z m-1360 -15 c-8 -5 -19 -10 -25 -10 -5 0 -3 5 5 10 8 5 20
10 25 10 6 0 3 -5 -5 -10z m1133 3 c-7 -2 -19 -2 -25 0 -7 3 -2 5 12 5 14 0
19 -2 13 -5z m257 -23 c0 -5 -4 -10 -10 -10 -5 0 -10 5 -10 10 0 6 5 10 10 10
6 0 10 -4 10 -10z m-1630 -24 c0 -11 -19 -15 -25 -6 -3 5 1 10 9 10 9 0 16 -2
16 -4z m1190 -6 c0 -5 -4 -10 -10 -10 -5 0 -10 5 -10 10 0 6 5 10 10 10 6 0
10 -4 10 -10z m570 -10 c0 -11 -2 -20 -5 -20 -2 0 -9 9 -15 20 -9 16 -8 20 5
20 8 0 15 -9 15 -20z m38 -13 c2 -19 -2 -27 -10 -25 -16 6 -19 55 -3 55 6 0
12 -13 13 -30z m-618 -8 c0 -5 -9 -9 -20 -9 -13 0 -18 5 -14 14 6 15 34 11 34
-5z m193 1 c3 -11 1 -18 -4 -14 -5 3 -9 12 -9 20 0 20 7 17 13 -6z m-46 -12
c-3 -8 -6 -5 -6 6 -1 11 2 17 5 13 3 -3 4 -12 1 -19z m148 12 c3 -5 1 -10 -4
-10 -6 0 -11 5 -11 10 0 6 2 10 4 10 3 0 8 -4 11 -10z m259 -6 c3 -8 2 -12 -4
-9 -6 3 -10 10 -10 16 0 14 7 11 14 -7z m-1734 -9 c0 -8 -4 -15 -10 -15 -5 0
-10 7 -10 15 0 8 5 15 10 15 6 0 10 -7 10 -15z m253 -18 c3 -8 -1 -14 -8 -14
-7 0 -11 6 -8 14 6 16 10 16 16 0z m1197 3 c0 -5 -5 -10 -11 -10 -5 0 -7 5 -4
10 3 6 8 10 11 10 2 0 4 -4 4 -10z m-1135 -10 c-3 -5 -11 -10 -16 -10 -6 0 -7
5 -4 10 3 6 11 10 16 10 6 0 7 -4 4 -10z m915 -10 c0 -11 7 -23 15 -26 8 -4
15 -10 15 -15 0 -4 -6 -6 -14 -3 -17 7 -40 64 -25 64 5 0 9 -9 9 -20z m80 0
c0 -5 -7 -7 -15 -4 -8 4 -15 8 -15 10 0 2 7 4 15 4 8 0 15 -4 15 -10z m80 -16
c0 -8 -4 -12 -10 -9 -5 3 -10 13 -10 21 0 8 5 12 10 9 6 -3 10 -13 10 -21z
m-317 -9 c-7 -21 -13 -19 -13 6 0 11 4 18 10 14 5 -3 7 -12 3 -20z m132 -5 c3
-6 -1 -7 -9 -4 -18 7 -21 14 -7 14 6 0 13 -4 16 -10z m-335 -10 c-13 -8 -12
-10 4 -10 11 0 17 -2 14 -5 -3 -4 -18 -3 -34 1 -25 6 -26 8 -9 15 28 11 43 10
25 -1z m85 -10 c13 -6 15 -9 5 -9 -8 0 -22 4 -30 9 -18 12 -2 12 25 0z m95 1
c0 -4 -12 -6 -26 -3 -19 3 -25 1 -20 -6 5 -8 1 -10 -9 -5 -13 5 -14 7 -3 14
17 11 58 11 58 0z m-1067 -7 c-7 -3 -9 -13 -6 -22 4 -15 3 -15 -6 -2 -15 22
-14 30 7 29 9 0 12 -3 5 -5z m382 -14 c3 -6 -1 -7 -9 -4 -18 7 -21 14 -7 14 6
0 13 -4 16 -10z m446 -13 c-10 -9 -11 -8 -5 6 3 10 9 15 12 12 3 -3 0 -11 -7
-18z m-901 7 c0 -3 -7 -12 -15 -20 -16 -17 -18 -14 -9 10 6 15 24 23 24 10z
m470 -18 c0 -3 -4 -8 -10 -11 -5 -3 -10 -1 -10 4 0 6 5 11 10 11 6 0 10 -2 10
-4z m530 -26 c12 -23 12 -24 -3 -11 -10 7 -17 20 -17 29 0 18 3 16 20 -18z
m300 20 c0 -5 -5 -10 -11 -10 -5 0 -7 5 -4 10 3 6 8 10 11 10 2 0 4 -4 4 -10z
m-1280 -10 c0 -5 -5 -10 -11 -10 -5 0 -7 5 -4 10 3 6 8 10 11 10 2 0 4 -4 4
-10z m60 -4 c0 -3 -4 -8 -10 -11 -5 -3 -10 -1 -10 4 0 6 5 11 10 11 6 0 10 -2
10 -4z m778 -21 c-3 -3 -9 2 -12 12 -6 14 -5 15 5 6 7 -7 10 -15 7 -18z m-873
5 c3 -5 1 -10 -4 -10 -6 0 -11 5 -11 10 0 6 2 10 4 10 3 0 8 -4 11 -10z m160
-9 c3 -5 1 -12 -5 -16 -5 -3 -10 1 -10 9 0 18 6 21 15 7z m65 -16 c0 -8 -4
-15 -9 -15 -13 0 -22 16 -14 24 11 11 23 6 23 -9z m324 -47 c-3 -4 -11 -5 -19
-1 -21 7 -19 12 4 10 11 0 18 -5 15 -9z m-494 -18 c18 -12 2 -12 -25 0 -13 6
-15 9 -5 9 8 0 22 -4 30 -9z m460 0 c-8 -5 -19 -10 -25 -10 -5 0 -3 5 5 10 8
5 20 10 25 10 6 0 3 -5 -5 -10z"/>
<path d="M1540 1893 c0 -22 2 -25 10 -13 8 12 10 11 10 -6 0 -12 7 -25 16 -28
9 -4 17 -5 18 -4 1 2 7 13 14 26 13 24 8 47 -9 37 -5 -4 -9 -1 -9 6 0 10 -3
10 -12 1 -15 -15 -32 -16 -23 -2 3 6 1 10 -4 10 -6 0 -11 -12 -11 -27z"/>
<path d="M1610 1860 c0 -5 5 -10 10 -10 6 0 10 5 10 10 0 6 -4 10 -10 10 -5 0
-10 -4 -10 -10z"/>
<path d="M1622 1703 c-16 -14 -18 -23 -12 -40 13 -32 29 -29 36 7 4 16 10 27
15 24 5 -3 6 2 3 10 -8 20 -17 20 -42 -1z"/>
<path d="M1580 1668 c0 -16 5 -28 10 -28 13 0 13 20 0 40 -8 12 -10 9 -10 -12z"/>
<path d="M1304 1951 c4 -6 2 -11 -3 -11 -16 0 -13 -26 3 -39 12 -10 14 -8 12
14 -3 22 0 25 18 19 25 -8 20 -1 -13 16 -15 8 -21 8 -17 1z"/>
<path d="M754 1760 c-39 -17 -41 -20 -47 -71 -4 -30 -7 -105 -7 -167 0 -90 -4
-120 -17 -143 -17 -28 -16 -30 2 -46 17 -16 18 -16 6 -1 -18 24 -5 38 34 35
18 -1 31 -6 27 -11 -3 -5 2 -6 12 -3 11 5 15 3 10 -5 -5 -8 -2 -9 10 -5 9 4
15 3 11 -3 -3 -5 11 -17 31 -26 26 -13 34 -22 31 -36 -3 -11 0 -18 9 -18 8 0
14 5 14 11 0 7 30 8 95 3 80 -6 95 -4 95 8 0 10 31 24 96 43 l95 28 22 -23
c13 -13 18 -24 11 -27 -19 -7 -49 -32 -39 -33 6 0 22 10 37 23 l27 22 -23 29
-24 28 -108 -36 c-107 -35 -169 -43 -209 -26 -11 5 -17 9 -12 9 13 2 -40 95
-69 122 -47 42 -81 84 -77 95 2 6 -8 16 -23 23 -19 8 -25 17 -21 31 3 11 2 20
-3 20 -4 0 -4 17 0 37 5 20 7 41 4 45 -3 4 3 8 12 8 10 0 14 3 11 7 -4 3 0 14
9 24 9 10 14 24 12 32 -2 12 -9 11 -44 -3z"/>
<path d="M1355 1658 c-17 -42 -65 -196 -65 -207 0 -3 4 0 9 8 7 11 13 12 23 3
21 -17 31 -3 56 73 13 39 26 76 29 84 4 10 0 11 -17 6 -19 -6 -20 -5 -11 12
10 20 10 48 -1 58 -3 3 -13 -13 -23 -37z"/>
<path d="M737 1279 c7 -7 15 -10 18 -7 3 3 -2 9 -12 12 -14 6 -15 5 -6 -5z"/>
<path d="M1158 1253 c7 -3 16 -2 19 1 4 3 -2 6 -13 5 -11 0 -14 -3 -6 -6z"/>
<path d="M790 1005 c0 -5 5 -17 10 -25 5 -8 10 -10 10 -5 0 6 -5 17 -10 25 -5
8 -10 11 -10 5z"/>
<path d="M1809 1240 c-13 -10 -18 -19 -11 -20 6 0 12 5 12 11 0 6 7 9 15 5 9
-3 15 0 15 9 0 19 -3 19 -31 -5z"/>
<path d="M1582 1206 c7 -8 17 -12 22 -9 4 3 2 9 -5 14 -22 13 -31 11 -17 -5z"/>
<path d="M1673 1015 c0 -8 4 -12 9 -9 4 3 8 9 8 15 0 5 -4 9 -8 9 -5 0 -9 -7
-9 -15z"/>
<path d="M1274 958 l-19 -23 23 19 c21 18 27 26 19 26 -2 0 -12 -10 -23 -22z"/>
<path d="M1790 806 c0 -9 5 -16 10 -16 6 0 10 4 10 9 0 6 -4 13 -10 16 -5 3
-10 -1 -10 -9z"/>
<path d="M1930 749 c0 -5 -6 -7 -12 -3 -9 5 -9 2 1 -9 18 -23 31 -21 31 3 0
11 -4 20 -10 20 -5 0 -10 -5 -10 -11z"/>
<path d="M508 839 c-2 -5 -12 -11 -23 -13 -17 -2 -25 -16 -10 -16 3 0 16 0 30
0 18 0 25 5 25 20 0 21 -16 28 -22 9z"/>
<path d="M560 760 c0 -19 3 -21 12 -12 9 9 9 15 0 24 -9 9 -12 7 -12 -12z"/>
<path d="M581 736 c-16 -9 -20 -15 -12 -21 7 -4 13 -5 14 -4 2 2 9 12 16 22
16 20 14 21 -18 3z"/>
<path d="M731 659 c-33 -31 -19 -34 24 -4 28 19 33 25 18 25 -10 0 -29 -9 -42
-21z"/>
<path d="M728 364 c-11 -23 -10 -28 12 -46 24 -20 24 -20 42 2 24 30 23 37
-12 55 -29 15 -30 15 -42 -11z"/>
<path d="M560 366 c0 -9 30 -14 35 -6 4 6 -3 10 -14 10 -12 0 -21 -2 -21 -4z"/>
<path d="M635 330 c3 -5 10 -10 16 -10 5 0 9 5 9 10 0 6 -7 10 -16 10 -8 0
-12 -4 -9 -10z"/>
<path d="M561 296 c2 -2 18 -6 34 -10 22 -5 26 -4 15 4 -14 9 -59 15 -49 6z"/>
<path d="M636 284 c-3 -8 -2 -13 3 -9 5 3 11 -1 14 -7 3 -7 4 -3 4 10 -1 25
-12 29 -21 6z"/>
<path d="M320 280 c0 -5 5 -10 11 -10 5 0 7 5 4 10 -3 6 -8 10 -11 10 -2 0 -4
-4 -4 -10z"/>
<path d="M325 250 c-3 -6 1 -7 9 -4 18 7 21 14 7 14 -6 0 -13 -4 -16 -10z"/>
<path d="M690 205 c-22 -23 -22 -25 -4 -24 38 4 53 -1 59 -21 8 -24 27 -27 23
-3 -2 11 5 19 17 21 15 2 17 1 6 -6 -9 -7 -10 -12 -2 -16 6 -4 14 1 18 10 4
10 2 19 -5 22 -7 2 -12 11 -12 20 0 12 -5 9 -18 -10 l-17 -26 -25 20 -24 19
25 -4 c13 -2 18 -2 12 0 -7 3 -13 9 -13 14 0 16 -16 10 -40 -16z"/>
<path d="M500 210 c0 -5 5 -10 10 -10 6 0 10 5 10 10 0 6 -4 10 -10 10 -5 0
-10 -4 -10 -10z"/>
<path d="M495 150 c-4 -6 -10 -8 -14 -6 -4 3 -13 0 -21 -6 -12 -8 -12 -9 3 -4
9 3 17 2 17 -3 0 -5 11 -11 25 -13 26 -5 35 6 13 15 -10 4 -10 6 0 6 7 1 10 6
7 11 -8 13 -22 13 -30 0z"/>
<path d="M905 140 c4 -6 11 -8 16 -5 14 9 11 15 -7 15 -8 0 -12 -5 -9 -10z"/>
</g>
</svg>
